<mxfile host="app.diagrams.net" modified="2023-10-31T11:36:05.133Z" agent="Mozilla/5.0 (Windows NT 10.0; Win64; x64) AppleWebKit/537.36 (KHTML, like Gecko) Chrome/118.0.0.0 Safari/537.36 Edg/118.0.2088.76" version="22.0.8" etag="4umgWpSRzHUl16J2T6BI" type="github">
  <diagram name="第 1 页" id="aeX65mSQJNv-Mb16XYdy">
    <mxGraphModel>
      <root>
        <mxCell id="0" />
        <mxCell id="1" parent="0" />
      </root>
    </mxGraphModel>
  </diagram>
</mxfile>
